<?xml version="1.0" standalone="no"?>
<!DOCTYPE svg PUBLIC "-//W3C//DTD SVG 20010904//EN"
 "http://www.w3.org/TR/2001/REC-SVG-20010904/DTD/svg10.dtd">
<svg version="1.0" xmlns="http://www.w3.org/2000/svg"
 width="480.000000pt" height="360.000000pt" viewBox="0 0 480.000000 360.000000"
 preserveAspectRatio="xMidYMid meet">

<g transform="translate(0.000000,360.000000) scale(0.100000,-0.100000)"
fill="#000000" stroke="none">
<path d="M2010 3065 c-36 -9 -73 -13 -82 -11 -28 7 -42 -17 -156 -269 -20 -44
-61 -123 -91 -175 -30 -52 -70 -129 -89 -170 -33 -71 -68 -146 -187 -395 -29
-60 -72 -155 -95 -210 -37 -87 -139 -292 -160 -320 -7 -10 -102 -189 -164
-308 l-30 -58 84 -78 85 -78 -18 -39 c-25 -51 -34 -139 -17 -159 15 -18 83
-49 151 -69 62 -19 286 -51 494 -71 88 -8 171 -18 185 -22 14 -3 167 -7 340
-8 173 -1 398 -7 500 -14 219 -16 394 -11 465 14 109 37 215 97 270 152 60 60
72 81 118 198 29 76 30 87 30 220 0 135 -2 144 -36 244 -20 57 -57 142 -83
190 -26 47 -60 113 -78 145 -17 33 -64 93 -103 133 -40 41 -73 76 -73 77 0 2
53 6 118 9 180 9 296 49 362 123 31 36 32 40 28 103 -8 112 -101 261 -184 296
l-34 14 0 89 c0 82 -2 92 -29 129 -35 48 -68 75 -124 101 -247 116 -301 134
-522 173 -93 16 -192 34 -220 40 -27 5 -171 12 -320 14 -217 4 -283 2 -335
-10z m775 -71 c201 -35 361 -74 412 -101 16 -8 72 -35 126 -59 54 -24 110 -53
125 -64 72 -56 91 -148 50 -230 -32 -61 -120 -113 -318 -187 -212 -79 -432
-130 -685 -158 -79 -8 -95 -14 -95 -31 0 -19 33 -31 134 -49 193 -33 291 -95
482 -303 108 -118 130 -149 179 -246 62 -122 84 -200 85 -291 0 -50 -6 -72
-42 -143 -65 -130 -178 -218 -337 -263 -154 -44 -519 -46 -776 -4 -49 8 -133
22 -185 30 -52 8 -147 23 -210 34 -128 23 -533 91 -538 91 -2 0 -3 10 -2 23 3
38 1 47 -14 47 -8 0 -21 -8 -28 -19 -12 -17 -17 -15 -73 35 l-60 54 42 82 c23
46 68 130 99 188 128 239 184 350 219 435 20 50 74 167 119 260 46 94 96 199
112 235 16 36 49 101 73 145 86 157 128 242 181 360 29 66 57 124 62 130 5 5
43 17 86 27 65 14 116 16 327 12 229 -4 267 -8 450 -40z m839 -563 c84 -80
131 -216 96 -281 -16 -30 -89 -68 -176 -91 -63 -17 -110 -22 -231 -23 -159 -1
-186 -9 -139 -40 71 -46 184 -165 225 -235 86 -149 114 -206 154 -310 l41
-106 0 -145 1 -145 -39 -92 c-63 -152 -152 -227 -347 -294 -82 -27 -229 -35
-374 -19 -60 6 -290 16 -510 20 -220 5 -461 16 -535 24 -74 8 -166 18 -205 21
-135 13 -307 46 -383 74 -76 27 -77 28 -76 62 2 52 29 114 51 117 34 5 134
-10 483 -73 83 -15 211 -35 480 -77 162 -25 575 -31 698 -10 96 16 211 65 292
123 79 58 110 97 157 195 36 75 36 75 30 182 -10 213 -105 379 -354 623 -125
122 -171 154 -272 189 -46 15 -85 31 -88 33 -6 7 46 20 172 42 135 24 244 54
400 109 160 57 234 92 305 144 66 48 77 47 144 -17z"/>
<path d="M2530 2730 c-206 -6 -241 -13 -315 -60 -46 -29 -62 -58 -71 -124 -6
-42 -4 -50 21 -76 15 -16 39 -33 54 -39 42 -16 348 -69 441 -76 l85 -6 61 38
c79 49 95 62 122 97 37 48 25 147 -20 161 -10 4 -18 10 -18 16 0 11 -85 54
-130 65 -19 5 -123 7 -230 4z m265 -66 c68 -33 115 -75 115 -104 0 -34 -35
-75 -103 -120 l-62 -42 -100 5 c-55 3 -120 10 -145 15 -25 6 -88 18 -140 27
-147 25 -170 39 -170 101 0 52 35 91 103 113 91 29 87 29 274 30 167 1 174 0
228 -25z"/>
<path d="M1903 1816 c-4 -8 -42 -29 -83 -47 -104 -45 -133 -69 -164 -134 -38
-81 -56 -166 -56 -273 0 -130 19 -164 120 -216 141 -73 344 -114 641 -128 207
-11 233 -10 305 6 184 43 214 74 214 222 0 94 -12 141 -57 232 -59 117 -134
156 -483 247 -69 18 -178 49 -243 69 -127 38 -181 45 -194 22z m267 -91 c63
-20 153 -45 201 -55 86 -19 242 -71 291 -96 46 -24 98 -75 119 -117 59 -115
75 -237 39 -307 -21 -41 -42 -51 -180 -84 -102 -25 -426 -7 -615 33 -173 37
-240 60 -309 106 -57 37 -59 41 -71 135 -12 87 25 237 78 313 10 15 47 42 80
59 57 29 109 40 227 47 14 0 77 -15 140 -34z"/>
</g>
</svg>
